:SAMPLES-PER-SECOND 30
:FULLY-SPECIFIED
:DEGREES
86
root  34.73376176 36.55690771 -14.28022009 9.836010933 -6.138197899 3.72579813
lowerback  -7.912710667 -0.8037409782 -1.372669816
upperback  -4.085659981 -0.4659990072 -3.85258007
thorax  0.193614006 -0.04903030023 -3.244009972
lowerneck  -4.812809944 -15.12979984 -10.7741003
upperneck  9.313079834 -20.64180183 11.17129993
head  5.874979973 -9.85130024 3.430219889
lclavicle  0 -4.497500157e-015 -2.743230041e-014
lhumerus  -47.8647995 29.02869987 63.3647995
lradius  0.006001632661 -6.507048965e-006 30.28450012
lwrist  4.824992743e-007 -3.790274832e-007 -28.10630226
lhand  -4.416312412e-031 -36.91149902 -10.67179966
lfingers  90 7.125020027 -90
lthumb  94.82076045 -25.50724672 101.0810285
rclavicle  0 -4.497500157e-015 -2.743230041e-014
rhumerus  -24.23150063 -33.15330124 -37.07889938
rradius  -5.16745672e-007 2.214343908e-008 116.7590027
rwrist  -2.867388866e-005 0.1098843217 179.0070038
rhand  -1.768881129e-031 3.510220051 -7.016839981
rfingers  -90 -7.125020027 -90
rthumb  -85.01756694 -8.923608911 -60.66297225
rfemur  -11.94812012 14.81636333 12.26475525
rtibia  -0.3807674944 -1.916557789 18.84883308
rfoot  1.492649078 -23.23065186 -33.44761276
rtoes  4.136178688 19.58478492 -102.1742777
lfemur  -5.189872742 -16.06624031 -22.29485512
ltibia  5.810159683 -0.8499377966 9.500451088
lfoot  0.7859464884 -21.23283005 37.18445587
ltoes  -8.575402162 -18.13667037 -115.8470924
87
root  34.73218182 36.55759256 -14.27782314 9.861258507 -6.113729477 3.731202364
lowerback  -7.880449295 -0.8114729524 -1.395349979
upperback  -4.105979919 -0.4737319946 -3.86552
thorax  0.154550001 -0.05161619931 -3.244950056
lowerneck  -4.739600182 -15.15499973 -10.79300022
upperneck  9.240409851 -20.67679977 11.1864996
head  5.847559929 -9.873029709 3.440350056
lclavicle  0 -4.497500157e-015 -2.743230041e-014
lhumerus  -47.87950134 29.06069946 63.2655983
lradius  0.006001632661 -6.507048965e-006 30.15690041
lwrist  4.824992743e-007 -3.790274832e-007 -28.29150009
lhand  -0 -36.94120026 -10.68400002
lfingers  90 7.125020027 -90
lthumb  94.83727609 -25.51818166 101.1138888
rclavicle  0 -4.497500157e-015 -2.743230041e-014
rhumerus  -22.69619942 -33.51330185 -36.70669937
rradius  -5.16745672e-007 2.214343908e-008 115.9960022
rwrist  -2.867388866e-005 0.1095369756 179.1997986
rhand  -1.768659868e-031 3.391360044 -6.624070168
rfingers  -90 -7.125020027 -90
rthumb  -84.85067893 -9.259194994 -60.74823972
rfemur  -11.9924345 14.8109827 12.26648617
rtibia  -0.3927372992 -1.903454423 18.89093399
rfoot  1.47266984 -23.20884895 -33.4642067
rtoes  4.128229506 19.58639901 -102.150564
lfemur  -5.141950607 -16.06489182 -22.3217411
ltibia  5.871710777 -0.8493947983 9.379666328
lfoot  0.7734042406 -21.16986847 37.1692009
ltoes  -8.582268134 -18.13350793 -115.8691512
88
root  34.72919915 36.55736728 -14.27594583 9.880712509 -6.074671745 3.735594034
lowerback  -7.860280037 -0.8224570155 -1.41296041
upperback  -4.120940208 -0.4852679968 -3.883860111
thorax  0.1274009943 -0.05928308517 -3.254810095
lowerneck  -4.706930161 -15.17910004 -10.7876997
upperneck  9.19890976 -20.71019936 11.19009972
head  5.832650185 -9.891139984 3.44024992
lclavicle  0 -4.497500157e-015 -2.743230041e-014
lhumerus  -47.9382019 29.32740021 62.98920059
lradius  0.006001632661 -6.507048965e-006 29.97979927
lwrist  4.824992743e-007 -3.790274832e-007 -28.77739906
lhand  -4.418033285e-031 -36.94120026 -10.73639965
lfingers  90 7.125020027 -90
lthumb  94.84847347 -25.5695991 101.1187171
rclavicle  0 -4.497500157e-015 -2.743230041e-014
rhumerus  -21.20159912 -33.84069443 -36.22280502
rradius  -5.16745672e-007 2.214343908e-008 115.0899963
rwrist  -2.867388866e-005 0.1091862395 179.1260071
rhand  -1.769182574e-031 3.665920019 -6.891389847
rfingers  -90 -7.125020027 -90
rthumb  -84.91906225 -9.042098014 -60.50128079
rfemur  -12.02913761 14.81656075 12.27507401
rtibia  -0.4059125781 -1.879259825 18.93395042
rfoot  1.463723183 -23.16316414 -33.46958542
rtoes  4.161546952 19.57961205 -102.2499679
lfemur  -5.080360889 -16.06555939 -22.35400391
ltibia  5.937865257 -0.8419953585 9.24916172
lfoot  0.7548943758 -21.12310028 37.13244629
ltoes  -8.535409597 -18.15502803 -115.7186794
89
root  34.72654688 36.55524066 -14.27375914 9.890975952 -6.049127579 3.746236086
lowerback  -7.834609509 -0.841852963 -1.437339902
upperback  -4.145750046 -0.5059350133 -3.916169882
thorax  0.08650690317 -0.06437519938 -3.276060104
lowerneck  -4.72055006 -15.18809986 -10.65120029
upperneck  9.199020386 -20.72180176 11.10949993
head  5.812890053 -9.895850182 3.397599936
lclavicle  0 -4.497500157e-015 -2.743230041e-014
lhumerus  -47.98529816 29.34409904 62.83499908
lradius  0.006001632661 -6.507048965e-006 29.93120193
lwrist  4.824992743e-007 -3.790274832e-007 -28.82410049
lhand  -0 -36.98939896 -10.68760014
lfingers  90 7.125020027 -90
lthumb  94.86070534 -25.52003089 101.1658851
rclavicle  0 -4.497500157e-015 -2.743230041e-014
rhumerus  -19.69039917 -34.16809464 -35.99610138
rradius  -5.16745672e-007 2.214343908e-008 114.2030029
rwrist  -2.867388866e-005 0.1088321656 179.3190002
rhand  -1.769777576e-031 3.95517993 -6.913129807
rfingers  -90 -7.125020027 -90
rthumb  -84.8620664 -9.040447278 -60.22064032
rfemur  -12.03869534 14.82891273 12.27562714
rtibia  -0.4133540392 -1.865346909 18.95067596
rfoot  1.453200579 -23.13170624 -33.50314713
rtoes  4.173820282 19.57709745 -102.2865943
lfemur  -5.006941795 -16.05469513 -22.39139938
ltibia  6.011006355 -0.8278364539 9.11085701
lfoot  0.7567113638 -21.09721565 37.13455963
ltoes  -8.551943497 -18.14745149 -115.7717533
90
root  34.7246936 36.55702185 -14.27249158 9.918588638 -6.032052994 3.748656988
lowerback  -7.805550098 -0.8336059451 -1.439389467
upperback  -4.160999775 -0.492704004 -3.949069977
thorax  0.05495569855 -0.05666200072 -3.307849884
lowerneck  -4.701960087 -15.2098999 -10.60620022
upperneck  9.20775032 -20.75439835 11.0909996
head  5.809319973 -9.911009789 3.383749962
lclavicle  0 -4.497500157e-015 -2.743230041e-014
lhumerus  -47.99850082 29.22389984 62.85490036
lradius  0.006001632661 -6.507048965e-006 30.00139999
lwrist  4.824992743e-007 -3.790274832e-007 -28.54100037
lhand  -0 -36.95709991 -10.71920013
lfingers  90 7.125020027 -90
lthumb  94.85225646 -25.55221243 101.1341023
rclavicle  0 -4.497500157e-015 -2.743230041e-014
rhumerus  -18.21409988 -34.50830078 -35.67559814
rradius  -5.16745672e-007 2.214343908e-008 113.2360001
rwrist  -2.867388866e-005 0.1084747985 179.5279999
rhand  -1.769353062e-031 3.751100063 -6.897109985
rfingers  -90 -7.125020027 -90
rthumb  -84.90198191 -9.042193947 -60.41862445
rfemur  -12.0491724 14.79429722 12.26864338
rtibia  -0.4146730304 -1.903098941 18.92194557
rfoot  1.446140051 -23.18988037 -33.52561951
rtoes  4.170663246 19.57774502 -102.2771725
lfemur  -5.06003952 -16.08242035 -22.37504578
ltibia  5.991791248 -0.8148761988 9.161304474
lfoot  0.7817576528 -21.15304184 37.15929794
ltoes  -8.5086778 -18.16723907 -115.6329155
91
root  34.72329688 36.55311705 -14.27148383 9.933846474 -6.006550312 3.75822711
lowerback  -7.786540031 -0.8134300113 -1.409920096
upperback  -4.177440166 -0.465956986 -3.977400064
thorax  0.02807280049 -0.04286529869 -3.351759911
lowerneck  -4.682439804 -15.2432003 -10.64319992
upperneck  9.21833992 -20.80249977 11.11320019
head  5.820940018 -9.934229851 3.389650106
lclavicle  0 -4.497500157e-015 -2.743230041e-014
lhumerus  -48.03590012 29.27339935 62.79199982
lradius  0.006001632661 -6.507048965e-006 30.01350021
lwrist  4.824992743e-007 -3.790274832e-007 -28.59059906
lhand  -0 -36.96749878 -10.66009998
lfingers  90 7.125020027 -90
lthumb  94.84449732 -25.49376558 101.1398403
rclavicle  0 -4.497500157e-015 -2.743230041e-014
rhumerus  -16.78759956 -34.83679962 -35.37030029
rradius  -5.16745672e-007 2.214343908e-008 112.2440033
rwrist  -2.867388866e-005 0.108114168 179.6360016
rhand  -1.769229933e-031 3.689779997 -6.684559822
rfingers  -90 -7.125020027 -90
rthumb  -84.81021591 -9.223494882 -60.46158511
rfemur  -12.02968788 14.77718258 12.26293182
rtibia  -0.4166622758 -1.949959159 18.87825203
rfoot  1.446683526 -23.26691628 -33.55024338
rtoes  4.165023365 19.57890058 -102.2603419
lfemur  -5.110028267 -16.10985374 -22.35330391
ltibia  5.97353363 -0.8216397762 9.2159338
lfoot  0.7915894389 -21.16323662 37.13340759
ltoes  -8.516563034 -18.16364206 -115.658208
